<?xml version="1.0" encoding="UTF-8"?>
<svg width="132px" height="23px" viewBox="0 0 132 23" version="1.1" xmlns="http://www.w3.org/2000/svg" xmlns:xlink="http://www.w3.org/1999/xlink">
    <!-- Generator: Sketch 49.1 (51147) - http://www.bohemiancoding.com/sketch -->
    <title>Page 1</title>
    <desc>Created with Sketch.</desc>
    <defs></defs>
    <g id="Symbols" stroke="none" stroke-width="1" fill="none" fill-rule="evenodd">
        <g id="Header" transform="translate(-249.000000, -27.000000)" fill="#3DB885">
            <g transform="translate(0.000000, -1.000000)" id="Page-1">
                <g transform="translate(249.000000, 28.000000)">
                    <path d="M36.2369132,3.33049315 L31.2522557,3.33049315 L31.2522557,13.695105 L27.3043105,13.695105 L27.3043105,3.33049315 L22.3216621,3.33049315 L22.3216621,0.0646484018 L27.3043105,0.0646484018 L31.2522557,0.0646484018 L36.2369132,0.0646484018 L36.2369132,3.33049315 Z M20.4787854,0.0646484018 L20.4787854,13.695105 L16.5348584,13.695105 L10.3482374,5.97400913 L10.3482374,13.695105 L6.40581735,13.695105 L6.40581735,0.0646484018 L10.3482374,0.0646484018 L10.3482374,0.0902648402 L10.4371416,0.0646484018 L16.5348584,7.69784475 L16.5348584,0.0646484018 L20.4787854,0.0646484018 Z M0.636091324,13.695105 L4.58453881,13.695105 L4.58453881,0.0646484018 L0.636091324,0.0646484018 L0.636091324,13.695105 Z M38.2103836,20.0931872 L39.3686484,17.5069315 L51.462621,17.5069315 L50.3083744,20.0931872 L38.2103836,20.0931872 Z M88.5225753,10.6166119 L93.4238539,10.6166119 L93.4238539,8.12126941 L88.4140822,8.12126941 C87.0001553,8.12126941 86.8720731,8.93798174 86.8720731,9.36693151 C86.8720731,9.77629224 86.9408858,10.6166119 88.5225753,10.6166119 Z M83.9648584,0.115881279 L92.8487397,0.141497717 C94.0803379,0.141497717 95.1165479,0.618164384 95.9623927,1.5689863 C96.8087397,2.52181735 97.2356804,3.64090411 97.2356804,5.11008219 L97.2356804,13.695105 L88.3407489,13.695105 C83.658968,13.695105 83.036137,10.6537808 83.036137,9.75218265 C83.036137,7.73149772 83.8920274,5.20300457 88.6175068,5.20300457 L93.4238539,5.20300457 L93.4238539,4.31346119 C93.4238539,3.53843836 93.0581918,3.08989954 92.1450411,3.08989954 L83.9648584,3.08989954 L83.9648584,0.115881279 Z M66.6099726,0.0646484018 L66.6099726,3.34656621 L57.266,3.34656621 L57.266,10.5297169 L66.6099726,10.5297169 L66.6099726,13.695105 L57.6512511,13.695105 C55.5200639,13.695105 53.2145845,11.5156986 53.2145845,8.94149772 L53.2145845,4.80569863 C53.2145845,2.05519635 55.399516,0.0646484018 57.6849041,0.0646484018 L66.6099726,0.0646484018 Z M112.507598,0.0646484018 L112.507598,3.34656621 L103.161114,3.34656621 L103.161114,10.5297169 L112.507598,10.5297169 L112.507598,13.695105 L103.548877,13.695105 C101.41568,13.695105 99.1102009,11.5156986 99.1102009,8.94149772 L99.1102009,4.80569863 C99.1102009,2.05519635 101.296639,0.0646484018 103.578511,0.0646484018 L112.507598,0.0646484018 Z M51.4098813,0.0646484018 L51.4098813,3.33049315 L42.1070959,3.33049315 L42.1070959,5.60231963 L48.1867306,5.60231963 L47.0299726,8.18656621 L42.1070959,8.18656621 L42.1070959,10.6166119 L51.4098813,10.6166119 L51.4098813,13.695105 L42.4963653,13.695105 C40.3772329,13.695105 38.0757717,11.5438265 38.0757717,8.98921461 L38.0757717,4.78410046 C38.0757717,2.04715982 40.2506575,0.0646484018 42.5244932,0.0646484018 L51.4098813,0.0646484018 Z M124.864265,13.695105 L120.67874,13.695105 L120.67874,8.21620091 L114.345954,0.0977990868 L118.903169,0.0977990868 L122.721525,5.41446575 L126.616228,0.0977990868 L131.26084,0.0977990868 L124.864265,8.21821005 L124.864265,13.7403105 L124.864265,13.695105 Z M77.1935799,13.695105 L74.5817078,9.28606393 L72.2762283,9.28606393 L72.27221,13.695105 L68.4880091,13.695105 L68.4980548,0.0977990868 L76.8791507,0.0977990868 C81.2012968,0.0977990868 82.0772785,2.83624658 82.0772785,4.52442009 C82.0772785,7.92738813 79.8290594,8.69638356 78.7833059,9.07259361 L81.6242192,13.695105 L77.1935799,13.695105 Z M76.606411,3.33049315 L72.199379,3.33049315 L72.199379,6.4089863 L76.606411,6.4089863 C77.6697443,6.4089863 78.22979,5.58674886 78.22979,4.86094977 C78.22979,4.18286758 77.802347,3.33049315 76.606411,3.33049315 Z" id="Fill-4"></path>
                    <polygon id="Fill-6" points="81.9049452 17.701968 83.1686895 17.701968 81.4398311 22.4435205 80.1348995 22.4435205 78.3995114 17.701968 79.6486895 17.701968 80.7943973 21.0617397 81.9190091 17.701968 81.9190091 17.6949361"></polygon>
                    <polygon id="Fill-8" points="88.5905845 21.429863 88.5905845 22.4439726 84.9113607 22.4439726 84.9113607 17.7019178 88.5905845 17.7019178 88.5905845 18.7155251 86.0354703 18.7155251 86.0354703 19.5206849 88.1947854 19.5206849 88.1947854 20.4232877 86.0354703 20.4232877 86.0354703 21.4228311 88.5905845 21.4228311 88.5905845 21.4163014"></polygon>
                    <polygon id="Fill-10" points="94.949589 17.701968 94.949589 22.4435205 93.5130594 22.4435205 91.8188584 19.1595936 91.8188584 22.4435205 90.7354338 22.4435205 90.7354338 17.701968 92.2352511 17.701968 93.8736986 20.9160776 93.8736986 17.701968 94.956621 17.701968 94.956621 17.6949361"></polygon>
                    <polygon id="Fill-12" points="101.017219 17.701968 101.017219 18.7155753 99.5455297 18.7155753 99.5455297 22.4369909 98.4073562 22.4369909 98.4073562 18.7155753 96.9421963 18.7155753 96.9421963 17.701968 101.017219 17.701968 101.017219 17.6949361"></polygon>
                    <path d="M107.140251,17.701968 L107.140251,20.6106895 C107.140251,21.2169452 106.9529,21.6870822 106.578196,22.0200959 C106.208014,22.3581324 105.703721,22.5268995 105.064315,22.5268995 C104.425913,22.5268995 103.92363,22.3581324 103.557968,22.0200959 C103.187785,21.6870822 103.002945,21.2169452 103.002945,20.6106895 L103.002945,17.701968 L104.141119,17.701968 L104.141119,20.6106895 C104.141119,20.902516 104.219977,21.1200046 104.377192,21.2636575 C104.534909,21.4163516 104.76395,21.4926986 105.064315,21.4926986 C105.365685,21.4926986 105.596735,21.4138402 105.758973,21.2566256 C105.920708,21.1034292 106.001575,20.8839315 106.001575,20.5971279 L106.001575,17.6884064 L107.140251,17.6884064 L107.140251,17.6808721 L107.140251,17.701968 Z" id="Fill-14"></path>
                    <path d="M111.972265,19.7361142 C112.083772,19.6341507 112.139023,19.4935114 112.139023,19.3126895 C112.139023,19.1368904 112.083772,18.9932374 111.972265,18.8822329 C111.865781,18.7712283 111.73368,18.7154749 111.576466,18.7154749 L110.521169,18.7154749 L110.521169,19.8888082 L111.576466,19.8888082 C111.73368,19.8888082 111.865781,19.8355662 111.972265,19.7290822 L111.972265,19.7225525 L111.972265,19.7361142 Z M112.472037,20.5834658 L113.499708,22.4439224 L112.180712,22.4439224 L111.347425,20.8054749 L110.528201,20.8054749 L110.528201,22.4439224 L109.403589,22.4439224 L109.403589,17.7018676 L111.611123,17.7018676 C112.129479,17.7018676 112.539342,17.841 112.84021,18.1182603 C113.140575,18.3960228 113.29126,18.7621872 113.29126,19.2152466 C113.29126,19.8541507 113.018018,20.3077123 112.472037,20.5759315 L112.472037,20.5834658 Z" id="Fill-16"></path>
                    <polygon id="Fill-18" points="119.109205 21.429863 119.109205 22.4439726 115.429479 22.4439726 115.429479 17.7019178 119.109205 17.7019178 119.109205 18.7155251 116.554091 18.7155251 116.554091 19.5206849 118.713406 19.5206849 118.713406 20.4232877 116.554091 20.4232877 116.554091 21.4228311 119.109205 21.4228311 119.109205 21.4163014"></polygon>
                    <path d="M125.037502,20.9786119 C125.037502,21.4186119 124.859694,21.7887945 124.503575,22.0896621 C124.150973,22.3860091 123.669785,22.5341826 123.059511,22.5341826 C122.087091,22.5341826 121.381384,22.1403927 120.941886,21.3538174 L121.886178,20.9369224 C122.154397,21.3814429 122.568781,21.6034521 123.128324,21.6034521 C123.341292,21.6034521 123.528644,21.557242 123.690881,21.4648219 C123.843575,21.3769224 123.919922,21.2518539 123.919922,21.0901187 C123.919922,20.9881553 123.892297,20.9027671 123.836543,20.8329498 C123.767228,20.7591142 123.686361,20.7058721 123.593941,20.673726 C123.542708,20.6546393 123.486954,20.6360548 123.427183,20.6174703 C123.366909,20.5993881 123.299603,20.5808037 123.226269,20.5622192 C123.156452,20.544137 123.083119,20.5275616 123.007274,20.5134977 C122.930927,20.4999361 122.848553,20.4858721 122.760653,20.4718082 C122.584352,20.4396621 122.43216,20.4050046 122.302571,20.3678356 C122.237776,20.3492511 122.17047,20.3271507 122.101155,20.3015342 C122.03184,20.2769224 121.960014,20.2452785 121.886178,20.2081096 C121.81184,20.1714429 121.744534,20.1317626 121.68426,20.0900731 C121.624489,20.0483836 121.571247,20.0046849 121.525037,19.9584749 C121.427594,19.8655525 121.348735,19.7455068 121.288963,19.5973333 C121.223667,19.4401187 121.191521,19.2663288 121.191521,19.0764658 C121.191521,18.6183836 121.358279,18.257242 121.691795,17.9935434 C122.029329,17.7298447 122.466817,17.5982466 123.003758,17.5982466 C123.846087,17.5982466 124.482479,17.9081553 124.912936,18.5279726 L124.037959,19.0141826 C123.801886,18.69021 123.45732,18.5279726 123.003758,18.5279726 C122.804854,18.5279726 122.640607,18.5651416 122.511018,18.6394795 C122.376406,18.7178356 122.3091,18.8268311 122.3091,18.9654612 C122.3091,19.1231781 122.378918,19.2361918 122.517548,19.3055068 C122.65668,19.3753242 122.88321,19.4376073 123.198142,19.4933607 C123.346315,19.5209863 123.482434,19.5496164 123.607502,19.5802557 C123.732571,19.6098904 123.846087,19.6415342 123.947548,19.6731781 C124.150973,19.7384749 124.340836,19.8263744 124.517137,19.937379 C124.692434,20.0483836 124.822525,20.187516 124.905904,20.354274 C124.988781,20.5205297 125.03047,20.7169224 125.03047,20.9444566 L125.03047,20.9369224 L125.037502,20.9786119 Z" id="Fill-20"></path>
                </g>
            </g>
        </g>
    </g>
</svg>