<svg xmlns="http://www.w3.org/2000/svg" xmlns:xlink="http://www.w3.org/1999/xlink" width="24" height="24" viewBox="0 0 24 24">
    <defs>
        <path id="a" d="M0 0h24v24H0z"/>
    </defs>
    <g fill="none" fill-rule="evenodd">
        <g>
            <mask id="b" fill="#fff">
                <use xlink:href="#a"/>
            </mask>
            <path fill="#FFF" d="M23.457 20.85H3.15V.543a.543.543 0 0 0-1.086 0V20.85H.543a.543.543 0 0 0 0 1.086h1.52v1.521a.543.543 0 0 0 1.087 0v-1.52h20.307a.543.543 0 0 0 0-1.087" mask="url(#b)"/>
        </g>
        <path fill="#FFF" d="M5.871 16.41c.426 0 .772.339.772.755a.765.765 0 0 1-.772.757.765.765 0 0 1-.771-.757c0-.416.346-.756.771-.756m5.42-6.559c.425 0 .77.34.77.757a.765.765 0 0 1-.77.756.765.765 0 0 1-.772-.756c0-.417.346-.757.772-.757m5.419 3.239c.425 0 .771.339.771.756a.765.765 0 0 1-.771.756.765.765 0 0 1-.772-.756c0-.417.346-.756.772-.756m5.419-11.01c.425 0 .771.338.771.755a.765.765 0 0 1-.771.757.765.765 0 0 1-.772-.757c0-.417.346-.756.772-.756M5.87 19c1.032 0 1.872-.823 1.872-1.835 0-.4-.132-.77-.354-1.07l3.188-3.793a1.893 1.893 0 0 0 1.953-.323l2.366 1.413a1.796 1.796 0 0 0-.058.453c0 1.011.84 1.834 1.872 1.834 1.031 0 1.871-.823 1.871-1.834 0-.532-.232-1.011-.602-1.347l3.843-7.854c.1.016.202.025.307.025C23.16 4.669 24 3.846 24 2.835 24 1.823 23.16 1 22.129 1c-1.032 0-1.872.823-1.872 1.835 0 .521.224.992.581 1.326l-3.85 7.87a1.885 1.885 0 0 0-1.518.442l-2.366-1.414c.038-.145.058-.296.058-.452 0-1.012-.84-1.835-1.871-1.835-1.032 0-1.872.823-1.872 1.835 0 .372.114.72.31 1.009l-3.217 3.826c-.2-.072-.416-.11-.64-.11-1.033 0-1.872.822-1.872 1.834C4 18.177 4.84 19 5.871 19"/>
    </g>
</svg>
