<svg xmlns="http://www.w3.org/2000/svg" width="124" height="124" viewBox="0 0 124 124">
    <g fill="none" fill-rule="evenodd">
        <path stroke="#28AA74" stroke-width="2" d="M123 62c0 33.69-27.31 61-61 61S1 95.69 1 62 28.31 1 62 1s61 27.31 61 61z"/>
        <path fill="#28AA74" d="M54.55 43.686c-.823 0-1.49.684-1.49 1.526 0 .843.667 1.527 1.49 1.527.822 0 1.49-.684 1.49-1.527 0-.842-.668-1.526-1.49-1.526"/>
        <path fill="#28AA74" d="M91.14 69.973c1.076 1.495 1.645 3.237 1.645 5.035 0 4.935-3.971 9.105-8.672 9.105 0-1.046-.15-2.071-.43-3.054a10.039 10.039 0 0 0 3.321-7.497 1.445 1.445 0 0 0-2.89 0 7.171 7.171 0 0 1-1.675 4.629c-2.13-3.57-6.05-6.074-10.322-6.074a1.445 1.445 0 1 0 0 2.89c4.766 0 9.106 4.34 9.106 9.106 0 .26-.014.524-.04.785a1.432 1.432 0 0 0-.079.317c-.459 3.559-3.4 6.593-7.155 7.38-.13.027-.25.05-.364.067l-.034.006c-.064.011-.13.022-.205.032l-.185.024c-.012 0-.024.002-.036.004h-.003c-.06.008-.12.013-.18.019l-.017.001a9.03 9.03 0 0 1-.165.015l-.06.003c-.023 0-.046.002-.068.004a1.173 1.173 0 0 1-.114.006 4.994 4.994 0 0 1-.186.007h-.002l-.213.002c-4.781 0-8.672-3.89-8.672-8.672v-2.55a5.728 5.728 0 0 1 2.891-.774c1.544 0 2.996.602 4.089 1.693a1.44 1.44 0 0 0 2.044-.001 1.445 1.445 0 0 0-.001-2.044 8.621 8.621 0 0 0-6.132-2.539c-.953 0-1.892.155-2.791.46-.034.01-.066.024-.1.035V62.6l2.116-2.116c1.346-1.346 3.288-2.118 5.328-2.118 2.04 0 3.982.772 5.327 2.118a10.05 10.05 0 0 0 3.281 2.192 10.06 10.06 0 0 0 3.872.77h.889a7.17 7.17 0 0 0 1.973 3.665c.283.282.652.423 1.022.423s.74-.142 1.022-.424a1.445 1.445 0 0 0-.001-2.044A4.303 4.303 0 0 1 87.004 62c0-1.159.451-2.247 1.27-3.065a1.445 1.445 0 1 0-2.043-2.045 7.167 7.167 0 0 0-1.974 3.665h-.888a7.18 7.18 0 0 1-2.766-.551 7.17 7.17 0 0 1-2.343-1.565c-1.883-1.884-4.57-2.965-7.37-2.965-2.802 0-5.489 1.08-7.373 2.965l-.072.072V46.1c3.087 0 5.991-1.202 8.176-3.385a1.445 1.445 0 0 0-2.043-2.045 8.62 8.62 0 0 1-6.133 2.54v-2.89a9.05 9.05 0 0 1 .333-2.416v-.002l.003-.013c.036-.134.076-.265.118-.389l.005-.015c.929-2.811 3.14-5.047 5.81-5.898l.057-.017c.063-.02.126-.039.19-.057l.017-.005h.003c.124-.035.255-.068.4-.101l.01-.002h.002c.125-.029.263-.055.42-.083h.002a7.98 7.98 0 0 1 1.525-.104h.017a3.516 3.516 0 0 1 .15.007h.015l.142.009c3.676.264 7.203 3.183 8.205 6.79.022.078.05.15.083.222.18.685.27 1.381.27 2.074 0 4.7-4.17 8.672-9.105 8.672a1.445 1.445 0 1 0 0 2.89c2.708 0 5.24-.92 7.273-2.445a7.29 7.29 0 0 1 3.238 2.394 1.443 1.443 0 0 0 2.026.27 1.445 1.445 0 0 0 .27-2.026 10.199 10.199 0 0 0-3.305-2.797c1.557-1.952 2.494-4.372 2.494-6.959 0-.48-.033-.963-.097-1.442l.097-.003c3.985 0 7.227 3.242 7.227 7.227 0 1.545-.507 3.036-1.466 4.313a1.445 1.445 0 0 0 .577 2.193c2.817 1.228 5.658 4.162 5.658 7.947 0 3.327-2.355 5.976-4.56 7.346a1.445 1.445 0 0 0-.41 2.072zM60.554 40.32v8.753C54.06 49.794 48.992 55.316 48.992 62c0 6.684 5.068 12.206 11.563 12.927v2.905C52.463 77.1 46.102 70.28 46.102 62c0-4.39 1.757-8.48 4.947-11.515a1.445 1.445 0 1 0-1.992-2.095c-3.77 3.586-5.846 8.42-5.846 13.61 0 9.874 7.656 17.994 17.344 18.734V96.11h-1.75l-2.131-8.907a1.446 1.446 0 0 0-1.032-1.06 24.502 24.502 0 0 1-5.914-2.447 1.445 1.445 0 0 0-1.468.012l-7.497 4.5-4.555-4.554 4.534-7.94a1.445 1.445 0 0 0-.004-1.441 24.435 24.435 0 0 1-2.445-5.914 1.446 1.446 0 0 0-1.074-1.035l-9.328-2.14v-6.369l9.328-2.139c.522-.12.935-.517 1.074-1.035a24.425 24.425 0 0 1 2.445-5.914 1.445 1.445 0 0 0-.012-1.467l-4.52-7.531 4.56-4.883 7.45 4.851a1.445 1.445 0 0 0 1.512.04 24.489 24.489 0 0 1 5.914-2.446 1.445 1.445 0 0 0 1.035-1.073l2.138-9.327h1.74v12.43zm0 31.692c-4.896-.703-8.672-4.924-8.672-10.012s3.776-9.309 8.672-10.012v20.024zM99 60.555c0-3.897-2.32-7.675-5.911-9.832a9.91 9.91 0 0 0 1.141-4.621c0-5.579-4.538-10.118-10.117-10.118-.286 0-.573.014-.862.04-1.74-4.273-5.845-7.362-10.374-7.672a4.988 4.988 0 0 0-.217-.013 5.788 5.788 0 0 0-.234-.01h-.008a10.82 10.82 0 0 0-1.638.078l-.077.011c-.113.015-.226.03-.337.049l-.025.004a.29.29 0 0 0-.01.002h-.003l-.028.005c-.172.03-.336.06-.498.097l-.036.007-.01.003h-.002l-.02.005c-.17.038-.336.08-.494.124l-.04.01-.001.001-.023.007c-2.224.627-4.22 1.964-5.73 3.758v-6.045c0-.798-.648-1.445-1.446-1.445h-4.336c-.674 0-1.258.466-1.409 1.122L54.05 35.74a27.398 27.398 0 0 0-4.987 2.06l-7.736-5.038a1.445 1.445 0 0 0-1.845.224l-6.132 6.566a1.445 1.445 0 0 0-.183 1.73l4.65 7.749a27.334 27.334 0 0 0-2.076 5.02l-9.619 2.204A1.445 1.445 0 0 0 25 57.665v8.671c0 .674.466 1.258 1.122 1.409l9.619 2.205a27.324 27.324 0 0 0 2.086 5.038l-4.676 8.19a1.445 1.445 0 0 0 .233 1.74l6.133 6.132a1.445 1.445 0 0 0 1.765.217l7.749-4.65a27.38 27.38 0 0 0 5.028 2.08l2.2 9.194c.155.65.736 1.109 1.405 1.109H62c.798 0 1.445-.647 1.445-1.445v-5.806a11.535 11.535 0 0 0 9.151 3.916c.02 0 .041 0 .062-.002h.001a4.584 4.584 0 0 0 .238-.013l.025-.001.055-.004H72.99l.183-.017.041-.004h.001c.078-.007.155-.015.232-.024.01 0 .019-.002.028-.003h.006l.242-.031h.002l.008-.001.007-.002c.097-.012.195-.028.29-.044h.002l.002-.001.014-.002c.174-.028.329-.057.476-.088l.018-.004h.003l.003-.001c.019-.004.037-.01.056-.013.122-.026.244-.054.364-.083.093-.023.185-.049.277-.074l.14-.038c.1-.028.2-.06.3-.09l.112-.035c.103-.034.205-.069.307-.105l.097-.035a11.906 11.906 0 0 0 1.142-.482c3.099-1.497 5.479-4.252 6.377-7.475.13.007.26.01.393.01 6.268 0 11.563-5.493 11.563-11.995 0-1.923-.483-3.794-1.408-5.483C97.218 67.23 99 63.9 99 60.555z"/>
    </g>
</svg>
