<svg xmlns="http://www.w3.org/2000/svg" width="124" height="124" viewBox="0 0 124 124">
    <g fill="none" fill-rule="evenodd">
        <g fill="#3DB885">
            <path d="M84.218 93.7c0 .721-.574 1.308-1.279 1.308H39.624c-.705 0-1.278-.587-1.278-1.309V40.635h8.497c1.95 0 3.535-1.624 3.535-3.62v-8.703h32.561c.705 0 1.279.587 1.279 1.31v64.077zM48.122 29.945v7.069c0 .722-.574 1.309-1.279 1.309h-6.902l8.18-8.378zM82.939 26H49.25l-.038.002a1.242 1.242 0 0 0-.18.02h-.001c-.05.01-.1.025-.147.042l-.025.01a1.104 1.104 0 0 0-.13.058l-.009.004a1.121 1.121 0 0 0-.267.203L36.421 38.662h-.001a1.175 1.175 0 0 0-.098.117l-.02.028a1.14 1.14 0 0 0-.08.129 1.159 1.159 0 0 0-.061.141l-.01.027c-.015.049-.03.098-.04.149v.005a1.264 1.264 0 0 0-.02.183l-.001.038V93.7c0 1.996 1.585 3.62 3.534 3.62H82.94c1.949 0 3.534-1.624 3.534-3.62V29.621c0-1.996-1.585-3.62-3.534-3.62z"/>
            <path d="M46.843 59.119H75.72c.623 0 1.128-.518 1.128-1.156 0-.638-.505-1.155-1.128-1.155H46.843c-.622 0-1.128.517-1.128 1.155s.506 1.156 1.128 1.156M46.843 65.28H75.72c.623 0 1.128-.517 1.128-1.155s-.505-1.156-1.128-1.156H46.843c-.622 0-1.128.518-1.128 1.156 0 .638.506 1.155 1.128 1.155M46.843 71.441h14.439c.623 0 1.128-.517 1.128-1.155s-.505-1.155-1.128-1.155H46.843c-.622 0-1.128.517-1.128 1.155s.506 1.155 1.128 1.155M62.41 76.447c0-.638-.505-1.155-1.128-1.155H46.844c-.623 0-1.129.517-1.129 1.155s.506 1.156 1.129 1.156h14.438c.623 0 1.128-.518 1.128-1.156M67.222 39.171c0-1.034 1.198-1.821 2.557-2.111v4.223c-1.359-.29-2.557-1.078-2.557-2.112m7.37 6.778c0 1.034-1.198 1.821-2.557 2.111v-4.223c1.359.29 2.557 1.078 2.557 2.112m-7.37 0c0-.639-.505-1.156-1.128-1.156-.622 0-1.128.517-1.128 1.156 0 2.252 2.04 4.072 4.813 4.464v.157c0 .638.505 1.155 1.128 1.155.623 0 1.128-.517 1.128-1.155v-.157c2.774-.393 4.813-2.212 4.813-4.464 0-2.252-2.04-4.072-4.813-4.465V37.06c1.359.29 2.557 1.078 2.557 2.111 0 .638.505 1.156 1.128 1.156.623 0 1.128-.518 1.128-1.156 0-2.252-2.04-4.072-4.813-4.464v-.157c0-.638-.505-1.155-1.128-1.155-.623 0-1.128.517-1.128 1.155v.157c-2.773.393-4.813 2.212-4.813 4.464 0 2.252 2.04 4.072 4.813 4.465v4.424c-1.359-.29-2.557-1.077-2.557-2.111M77.94 75.367a1.114 1.114 0 0 0-1.537.438l-2.32 4.204-.317-.25a1.108 1.108 0 0 0-.943-.21c-.33.078-.607.303-.757.614l-1.172 2.43-.376-.442a2.275 2.275 0 0 0-2.2-.775 2.326 2.326 0 0 0-1.76 1.56l-1.293 3.815-3.08-3.983a1.121 1.121 0 0 0-.78-.434 1.116 1.116 0 0 0-.845.28l-3.27 2.92c-.47.42-.518 1.15-.108 1.63.41.481 1.122.53 1.591.112l2.378-2.124 2.94 3.803a1.714 1.714 0 0 0 1.645.647 1.741 1.741 0 0 0 1.345-1.165l1.609-4.742c.005-.017.014-.042.057-.05.042-.009.06.011.07.024l1.489 1.749a1.115 1.115 0 0 0 1.862-.248l1.311-2.72.258.203c.26.205.592.283.913.217.32-.066.597-.273.758-.564l2.959-5.364a1.17 1.17 0 0 0-.427-1.575"/>
        </g>
        <path stroke="#28AA74" stroke-width="2" d="M123 62c0 33.69-27.31 61-61 61S1 95.69 1 62 28.31 1 62 1s61 27.31 61 61z"/>
    </g>
</svg>
