<svg xmlns="http://www.w3.org/2000/svg" width="32" height="27" viewBox="0 0 32 27">
    <g fill="#FFF" fill-opacity=".92" fill-rule="nonzero">
        <path d="M16 26.534a.491.491 0 0 1-.37-.165L.114 8.679A.45.45 0 0 1 .097 8.1L5.915.652a.492.492 0 0 1 .388-.186h19.394c.152 0 .297.068.388.186L31.903 8.1a.45.45 0 0 1-.017.58L16.37 26.368a.491.491 0 0 1-.37.165zM1.104 8.363L16 25.346 30.896 8.363l-5.441-6.966H6.545l-5.44 6.966z"/>
        <path d="M31.515 8.845H.485A.475.475 0 0 1 0 8.379c0-.258.217-.465.485-.465h31.03c.268 0 .485.208.485.465a.476.476 0 0 1-.485.466z"/>
        <path d="M16 26.534a.487.487 0 0 1-.145-.02.46.46 0 0 1-.317-.585l5.819-17.69a.488.488 0 0 1 .608-.303.46.46 0 0 1 .316.584l-5.818 17.69a.484.484 0 0 1-.463.324z"/>
        <path d="M16 26.534a.483.483 0 0 1-.463-.325L9.72 8.519a.462.462 0 0 1 .316-.584.487.487 0 0 1 .608.304l5.819 17.69a.462.462 0 0 1-.317.583.46.46 0 0 1-.145.022z"/>
        <path d="M10.182 8.845a.488.488 0 0 1-.435-.257L5.87 1.14a.458.458 0 0 1 .217-.625.495.495 0 0 1 .65.208l3.88 7.449c.12.23.022.509-.218.624a.504.504 0 0 1-.216.049z"/>
        <path d="M10.182 8.845c-.101 0-.203-.03-.29-.093a.453.453 0 0 1-.097-.652L15.613.652a.499.499 0 0 1 .679-.093.453.453 0 0 1 .097.651L10.57 8.66a.493.493 0 0 1-.39.186z"/>
        <path d="M21.818 8.845a.49.49 0 0 1-.388-.186L15.612 1.21A.453.453 0 0 1 15.71.56a.496.496 0 0 1 .679.093L22.206 8.1a.453.453 0 0 1-.097.652.492.492 0 0 1-.29.093z"/>
        <path d="M21.818 8.845a.498.498 0 0 1-.216-.05.458.458 0 0 1-.217-.624L25.264.722c.12-.23.41-.323.65-.208.24.115.337.395.217.625l-3.878 7.448a.489.489 0 0 1-.435.258z"/>
    </g>
</svg>
