<svg xmlns="http://www.w3.org/2000/svg" width="100" height="122" viewBox="0 0 100 122">
    <g fill="none" fill-rule="evenodd">
        <path stroke="#3DB885" stroke-width="3" d="M26.344 23.974l9.14 25.572M74.731 45.817L59.271 57.23M83.333 78.847l-21.43-9.237M35.603 79.545l-15.71 23.276"/>
        <g fill="#3DB885">
            <path d="M44.892 46.882c-10.244 0-18.548 8.229-18.548 18.38s8.304 18.38 18.548 18.38c10.245 0 18.549-8.229 18.549-18.38s-8.304-18.38-18.549-18.38m0 3.197c8.45 0 15.323 6.81 15.323 15.183 0 8.372-6.874 15.183-15.323 15.183-8.448 0-15.322-6.81-15.322-15.183 0-8.372 6.874-15.183 15.322-15.183M23.118 0C15.398 0 9.14 6.202 9.14 13.852s6.258 13.851 13.978 13.851 13.979-6.202 13.979-13.851C37.097 6.202 30.838 0 23.118 0m0 3.197c5.93 0 10.753 4.78 10.753 10.655 0 5.875-4.824 10.655-10.753 10.655s-10.752-4.78-10.752-10.655c0-5.876 4.823-10.655 10.752-10.655M78.763 30.9c-5.196 0-9.408 4.174-9.408 9.323s4.212 9.323 9.408 9.323c5.197 0 9.409-4.174 9.409-9.323 0-5.15-4.212-9.323-9.409-9.323m0 3.196c3.41 0 6.183 2.749 6.183 6.127 0 3.378-2.773 6.126-6.183 6.126-3.409 0-6.182-2.748-6.182-6.126s2.773-6.127 6.182-6.127M90.591 74.052c-5.196 0-9.408 4.175-9.408 9.324s4.212 9.323 9.408 9.323c5.197 0 9.409-4.174 9.409-9.323 0-5.15-4.212-9.324-9.409-9.324m0 3.197c3.41 0 6.183 2.748 6.183 6.127 0 3.378-2.773 6.126-6.183 6.126-3.409 0-6.182-2.748-6.182-6.126 0-3.379 2.773-6.127 6.182-6.127M11.56 99.092C5.174 99.092 0 104.22 0 110.546 0 116.872 5.175 122 11.56 122c6.383 0 11.558-5.128 11.558-11.454 0-6.326-5.175-11.454-11.559-11.454m0 3.196c4.595 0 8.333 3.704 8.333 8.258 0 4.553-3.738 8.257-8.333 8.257-4.595 0-8.333-3.704-8.333-8.257 0-4.554 3.738-8.258 8.333-8.258"/>
        </g>
    </g>
</svg>
