<svg xmlns="http://www.w3.org/2000/svg" width="30" height="30" viewBox="0 0 30 30">
    <g fill="#FFF" fill-opacity=".91" fill-rule="nonzero">
        <path d="M26.043 22.89a.716.716 0 0 1 1.013-1.014l2.734 2.734a.716.716 0 0 1-1.013 1.014l-2.734-2.734zM9.024 4.142c.63.63.976 1.467.976 2.358 0 .89-.347 1.728-.976 2.358-.65.65-1.504.975-2.357.975a3.322 3.322 0 0 1-2.357-.975A3.314 3.314 0 0 1 3.333 6.5a3.336 3.336 0 0 1 5.69-2.358zm-3.71 3.712a1.915 1.915 0 1 0 2.706-2.71 1.915 1.915 0 0 0-2.706 2.71zM24.366 24.366a.68.68 0 0 1 .961 0l3.64 3.64a.68.68 0 0 1-.961.962l-3.64-3.64a.68.68 0 0 1 0-.962z"/>
        <path d="M.431.902A.677.677 0 0 1 .902.431c2.468-.685 5.14-.552 7.73.385 2.005.726 3.956 1.943 5.352 3.339l2.105 2.105 7.627 1.191a.677.677 0 0 1 .374.19l4.878 4.878a.677.677 0 0 1-.45 1.155l-4.812.203 1.206 1.206a.677.677 0 0 1 0 .957l-.704.704 2.103 3.223a.677.677 0 0 1-.089.848l-5.407 5.408a.677.677 0 0 1-.849.088l-3.222-2.102-.704.703a.677.677 0 0 1-.957 0l-1.206-1.206-.203 4.812a.677.677 0 0 1-1.155.45L7.641 24.09a.678.678 0 0 1-.19-.374L6.26 16.09l-2.106-2.105C2.76 12.588 1.542 10.637.816 8.631-.121 6.042-.254 3.37.431.902zm19.815 23.975l4.63-4.63-1.646-2.525-2.275 2.276.267.267a.677.677 0 1 1-.957.958l-.268-.268-2.275 2.275 2.524 1.647zM5.112 13.027l2.261 2.261h.001l2.353 2.354a.677.677 0 0 1-.958.957l-.885-.885.87 5.575 3.632 3.632.19-4.515-1.892-1.892a.677.677 0 0 1 .958-.957l2.1 2.1.003.003 1.816 1.816.604-.604a.765.765 0 0 1 .021-.02l2.854-2.854-8.188-8.189a.677.677 0 0 1 .957-.957l8.188 8.188 2.855-2.854a.752.752 0 0 1 .02-.02l.604-.605-1.816-1.816a.077.077 0 0 1-.003-.003l-2.1-2.1a.677.677 0 1 1 .957-.958l1.892 1.892 4.514-.19-3.631-3.631-5.576-.871.886.885-.957.958-2.346-2.346a.635.635 0 0 1-.015-.015l-2.254-2.254C11.143 3.228 6.669.437 1.639 1.639c-1.202 5.03 1.589 9.504 3.473 11.388zM22.89 26.043l2.734 2.734a.716.716 0 0 1-1.014 1.013l-2.734-2.734a.716.716 0 0 1 1.014-1.013z"/>
    </g>
</svg>
