<svg xmlns="http://www.w3.org/2000/svg" width="281" height="278" viewBox="0 0 281 278">
    <g fill="#FFF" fill-opacity=".1" fill-rule="nonzero">
        <path d="M245.995 210.276a6.072 6.072 0 0 1 .153-8.752c2.526-2.372 6.553-2.302 8.995.157l23.862 24.042a6.072 6.072 0 0 1-.153 8.752 6.434 6.434 0 0 1-4.529 1.734 6.434 6.434 0 0 1-4.466-1.89l-23.862-24.043zM85.568 44.857c5.57 5.579 8.563 12.918 8.427 20.667-.135 7.749-3.382 14.98-9.143 20.36-5.946 5.552-13.677 8.246-21.358 8.112-7.682-.135-15.313-3.096-21.062-8.853-5.57-5.578-8.563-12.917-8.427-20.666.135-7.749 3.382-14.98 9.143-20.36 11.892-11.106 30.921-10.774 42.42.74zM51.62 76.563c6.6 6.611 17.523 6.802 24.35.425 3.308-3.089 5.172-7.238 5.25-11.687.077-4.448-1.641-8.662-4.838-11.864-3.3-3.305-7.68-5.005-12.09-5.082-4.41-.077-8.848 1.47-12.26 4.657-3.308 3.089-5.172 7.24-5.25 11.688-.078 4.449 1.64 8.66 4.838 11.863zM226.245 220.457c2.538-2.398 6.584-2.327 9.037.158l33.628 34.081a6.162 6.162 0 0 1-.155 8.846 6.445 6.445 0 0 1-4.55 1.753 6.444 6.444 0 0 1-4.487-1.91l-33.628-34.082a6.162 6.162 0 0 1 .155-8.846z"/>
        <path d="M5.263 7.99c.633-2.093 2.343-3.706 4.502-4.253C33.051-2.15 58.133-.487 82.3 8.542c18.726 6.998 36.857 18.496 49.743 31.548l19.437 19.687 71.446 12.195a6.414 6.414 0 0 1 3.485 1.809l45.036 45.615c1.754 1.777 2.27 4.398 1.313 6.682-.957 2.283-3.204 3.796-5.727 3.856l-45.229 1.07 11.134 11.278a6.126 6.126 0 0 1-.153 8.797l-6.724 6.35 19.23 29.951a6.119 6.119 0 0 1-.966 7.782l-51.658 48.792c-2.163 2.043-5.494 2.324-7.986.672l-29.93-19.844-6.724 6.352c-2.526 2.385-6.553 2.314-8.994-.157L127.899 219.7l-2.672 44.172c-.15 2.464-1.774 4.608-4.14 5.463a6.475 6.475 0 0 1-6.783-1.516L69.27 222.205a6.179 6.179 0 0 1-1.727-3.47l-9.968-70.264-19.436-19.687C25.252 115.732 14.135 97.608 7.64 79.06-.742 55.122-1.564 30.546 5.263 7.99zM187.54 231.495l44.235-41.781-15.061-23.457-21.734 20.529 2.47 2.502a6.125 6.125 0 0 1-.154 8.796c-2.525 2.385-6.552 2.315-8.993-.157l-2.47-2.502-21.734 20.529 23.441 15.541zM47.286 120.145l20.877 21.147.008.008 21.723 22.002a6.126 6.126 0 0 1-.154 8.797c-2.525 2.385-6.552 2.314-8.993-.157l-8.177-8.282 7.287 51.366 33.527 33.96 2.508-41.447-17.466-17.69a6.126 6.126 0 0 1 .153-8.798c2.526-2.385 6.552-2.314 8.994.157l19.39 19.64.031.031 16.766 16.981 5.768-5.447c.066-.064.132-.127.2-.189l27.265-25.752-75.598-76.569a6.125 6.125 0 0 1 .154-8.797c2.525-2.384 6.552-2.314 8.993.157l75.597 76.57 27.266-25.753c.065-.064.13-.126.199-.188l5.767-5.448-16.767-16.982a.712.712 0 0 1-.03-.03l-19.39-19.64a6.125 6.125 0 0 1 .154-8.797c2.525-2.384 6.552-2.314 8.993.157l17.465 17.69 42.437-1.004-33.528-33.959-52.23-8.915 8.177 8.282-9.146 8.64-21.658-21.937a5.9 5.9 0 0 1-.14-.14l-20.811-21.08C105.503 31.112 63.932 4.733 16.492 14.956c-12.101 46.016 13.4 87.573 30.794 105.19zM213.143 242.682l23.862 24.041a6.072 6.072 0 0 1-.153 8.752 6.435 6.435 0 0 1-4.529 1.734 6.434 6.434 0 0 1-4.466-1.89l-23.862-24.042a6.072 6.072 0 0 1 .153-8.752c2.525-2.373 6.553-2.303 8.995.157z"/>
    </g>
</svg>
