<svg xmlns="http://www.w3.org/2000/svg" width="10" height="10" viewBox="0 0 10 10">
    <path fill="#FFF" fill-rule="evenodd" d="M5.01 3.032C3.9 3.032 3 3.904 3 4.978c0 1.075.9 1.946 2.008 1.946 1.11 0 2.01-.87 2.01-1.946 0-1.074-.9-1.946-2.01-1.946zM8.87 4.23h-.88c.083.272.128.56.128.858 0 1.663-1.392 3.012-3.108 3.012C3.293 8.099 1.9 6.75 1.9 5.087c0-.298.045-.586.129-.858H1.11v4.224c0 .219.18.398.398.398h6.964a.399.399 0 0 0 .397-.398V4.23zM7.285 1.111a.451.451 0 0 0-.45.45V2.64c0 .248.202.45.45.45h1.13c.248 0 .45-.202.45-.45V1.56a.451.451 0 0 0-.45-.45h-1.13zM1.284 0h7.433C9.422 0 10 .523 10 1.283v7.434C10 9.477 9.422 10 8.717 10H1.284C.577 10 0 9.477 0 8.717V1.283C0 .523.577 0 1.284 0z"/>
</svg>
