<svg xmlns="http://www.w3.org/2000/svg" width="124" height="124" viewBox="0 0 124 124">
    <g fill="none" fill-rule="evenodd">
        <path stroke="#28AA74" stroke-width="2" d="M123 62c0 33.69-27.31 61-61 61S1 95.69 1 62 28.31 1 62 1s61 27.31 61 61z"/>
        <path fill="#28AA74" d="M37.718 91.284c0 .832-.658 1.508-1.467 1.508h-3c-.809 0-1.467-.676-1.467-1.508V68.478c0-.832.658-1.508 1.467-1.508h3c.81 0 1.467.676 1.467 1.508v22.806zM36.251 64.88h-3c-1.93 0-3.5 1.614-3.5 3.597v22.806c0 1.983 1.57 3.597 3.5 3.597h3c1.93 0 3.5-1.614 3.5-3.597V68.478c0-1.983-1.57-3.597-3.5-3.597z"/>
        <path fill="#28AA74" d="M77.751 82.265l-2.632-.161-.065-.72c-.267-2.935-2.322-5.275-4.996-5.688a.383.383 0 0 0-.025-.004l-10.175-1.28a16.255 16.255 0 0 1-6.29-2.394c-.172-.11-.346-.217-.521-.321l-.14-.08a18.301 18.301 0 0 0-.97-.53c-.039-.018-.077-.038-.115-.057a18.657 18.657 0 0 0-.505-.242l-.04-.018a18.092 18.092 0 0 0-1.171-.487l-.031-.011a16.512 16.512 0 0 0-.395-.144l.02-.076c.798-3.605 3.6-6.309 6.972-6.73a.95.95 0 0 0 .542-.264c1.49-1.445 3.406-2.241 5.398-2.241 1.99 0 3.908.796 5.397 2.241a.95.95 0 0 0 .543.265c3.371.42 6.173 3.124 6.971 6.729.096.43.423.753.824.813 3.522.525 6.348 3.577 6.917 7.369l-5.513 4.031zM51.81 40.542c-.078-1.021-.361-3.062-1.395-4.977-.276-.512-.88-.682-1.348-.38-.469.301-.625.96-.349 1.472.512.949.796 1.955.954 2.778-.688-.34-1.355-.657-2.006-.967-3.586-1.704-6.386-3.037-9.152-6.631 2.128.774 5.378 1.596 10.299 2.174 4.571.536 7.622 2.886 9.069 6.984.538 1.525.752 3.029.83 4.18a45.495 45.495 0 0 0-6.902-4.633zm.952 7.894c-4.824.613-8.754-.884-11.683-4.448-2.731-3.324-3.856-7.88-4.32-11.096 1.144 1.537 2.357 2.801 3.702 3.865a21.518 21.518 0 0 0 2.793 1.855c-.6.061-1.288.092-2.049.064-.538-.02-.998.446-1.017 1.04-.018.594.408 1.092.952 1.111.212.008.42.012.622.012 2.216 0 3.829-.435 4.542-.671l.576.273c2.128 1.012 4.433 2.108 7.072 3.841-1.25.456-3.007.904-4.643.637-.538-.088-1.04.317-1.12.905-.08.588.29 1.135.829 1.223.435.071.874.102 1.31.102 2.394 0 4.676-.945 5.684-1.427.57.423 1.156.878 1.758 1.37-1.173.481-2.953 1.083-5.008 1.344zm14.864-3.503c1.583-4.56 4.95-7.174 10.01-7.767 5.615-.66 9.231-1.607 11.536-2.48-2.838 3.795-5.69 5.36-9.235 7.062l-.008.004-.994.474a149.5 149.5 0 0 0-2.356 1.137c.145-.82.406-1.836.878-2.837.25-.528.06-1.177-.423-1.45-.483-.272-1.078-.065-1.327.464-.92 1.95-1.178 3.928-1.25 4.925-2.311 1.26-4.85 2.863-7.734 5.207.071-1.268.294-2.982.903-4.739zm18.537 3.298c-3.209 3.905-7.51 5.553-12.784 4.9-2.361-.292-4.407-1.004-5.704-1.547.72-.591 1.418-1.136 2.096-1.638 1.068.516 3.582 1.574 6.218 1.574a8.93 8.93 0 0 0 1.241-.084c.54-.076.92-.615.852-1.204-.07-.59-.563-1.007-1.103-.93-1.84.258-3.807-.281-5.159-.792 2.955-1.959 5.53-3.184 7.901-4.31l.66-.315c.754.253 2.522.74 4.967.74l.165-.001c.544-.005.982-.49.977-1.085-.004-.59-.444-1.067-.985-1.067h-.008a16.058 16.058 0 0 1-2.083-.117c2.685-1.48 5.118-3.306 7.54-6.656-.475 3.54-1.69 8.758-4.79 12.532zm9.611 26.076c-1.233-1.981-3.718-2.506-5.538-1.17l-5.208 3.809c-.429-1.833-1.286-3.535-2.494-4.912-1.42-1.62-3.273-2.733-5.27-3.18-1.152-4.023-4.346-7.016-8.18-7.626-1.57-1.43-3.49-2.301-5.513-2.512v-3.381l2.34-2.215c1.16.563 3.853 1.719 7.182 2.141.826.105 1.634.157 2.425.157 4.845 0 8.998-1.96 12.11-5.749 5.625-6.844 5.606-17.456 5.602-17.904v-.013c-.002-.046-.005-.092-.011-.137-.003-.027-.009-.054-.014-.08l-.004-.02c-.075-.362-.3-.676-.63-.793a.895.895 0 0 0-1.063.338c-.097.097-.76.714-2.65 1.468-1.874.747-5.38 1.788-11.432 2.498-7.296.856-10.358 5.446-11.642 9.144-1.067 3.077-1.094 6.006-1.047 7.216l-1.166 1.102v-2.177a1.175 1.175 0 0 0 0-.407V33.852c0-.595-.44-1.076-.985-1.076-.544 0-.985.481-.985 1.076v13.883l-.888-.84c.04-1.14.004-3.801-.966-6.596-1.183-3.409-4.004-7.639-10.724-8.428-5.51-.646-8.705-1.591-10.415-2.27-1.712-.68-2.324-1.236-2.421-1.332a.892.892 0 0 0-1.063-.34c-.33.117-.557.435-.63.801-.002.004-.003.007-.003.011a1.191 1.191 0 0 0-.025.222l-.001.013c-.003.412-.021 10.159 5.148 16.45 2.866 3.487 6.688 5.292 11.146 5.292.727 0 1.471-.048 2.23-.144 3.01-.383 5.457-1.418 6.549-1.944l2.063 1.952v4.138c-.01.09-.01.18 0 .27v3.733c-2.003.22-3.904 1.087-5.459 2.505-3.835.61-7.029 3.603-8.18 7.626a9.448 9.448 0 0 0-1.516.48 17.623 17.623 0 0 0-2.593-.193h-1.27c-.543 0-.984.482-.984 1.076 0 .594.44 1.076.984 1.076h1.27a15.825 15.825 0 0 1 3.643.428l.195.046a16.339 16.339 0 0 1 .56.15l.151.044c.163.049.326.1.488.154l.083.028c.151.051.302.104.451.16l.06.022c.345.13.687.272 1.024.426l.043.02a16.094 16.094 0 0 1 .999.5l.06.033c.134.074.268.15.4.228l.113.066c.151.09.302.182.452.278a18.109 18.109 0 0 0 7.046 2.673l10.174 1.28c1.767.279 3.123 1.827 3.3 3.769l.038.425-17.86-.772a.24.24 0 0 1-.154-.095.284.284 0 0 1-.057-.199c.05-.592-.35-1.115-.892-1.168-.542-.055-1.02.382-1.07.974a2.56 2.56 0 0 0 .506 1.771 2.155 2.155 0 0 0 1.554.866l20.141.87 2.67.164a.903.903 0 0 0 .055.001c.021 0 .042-.003.063-.005l.058-.004a.91.91 0 0 0 .1-.021c.017-.004.033-.007.049-.012a.92.92 0 0 0 .106-.042l.037-.016a.959.959 0 0 0 .135-.081l6.292-4.601.001-.002 6.466-4.727c.925-.679 2.186-.413 2.812.593.573.92.43 2.17-.335 2.913L81.196 90.824a7.376 7.376 0 0 1-3.61 1.762l-19.537 3.077-.027.004c-.58.1-1.184.059-1.796-.124l-13.269-5.49c-.509-.21-1.077.07-1.27.625-.192.556.064 1.177.572 1.387l13.31 5.507c.027.011.055.021.082.03.585.18 1.169.27 1.747.27.314 0 .626-.026.936-.08h.004l19.536-3.077.015-.003c1.675-.292 3.255-1.065 4.57-2.237a.774.774 0 0 0 .036-.034L95.12 80.034c1.5-1.454 1.78-3.917.652-5.727z"/>
    </g>
</svg>
