<svg xmlns="http://www.w3.org/2000/svg" xmlns:xlink="http://www.w3.org/1999/xlink" width="143" height="130" viewBox="0 0 143 130">
    <defs>
        <path id="a" d="M.295.216h24.512v23.518H.295z"/>
    </defs>
    <g fill="none" fill-rule="evenodd">
        <path stroke="#3DB885" stroke-linecap="round" stroke-width="3" d="M114.12 40.238c5.004 8.71 6.78 17.917 6.78 28.682 0 32.834-26.617 59.45-59.45 59.45S2 101.754 2 68.92C2 36.087 28.617 9.47 61.45 9.47c14.96 0 28.631 5.526 39.08 14.649"/>
        <path stroke="#3DB885" stroke-linecap="round" stroke-width="3" d="M100.875 48.848a44.52 44.52 0 0 1 5.294 21.124c0 24.698-20.022 44.72-44.719 44.72-24.698 0-44.719-20.022-44.719-44.72S36.752 25.253 61.45 25.253a44.526 44.526 0 0 1 27.39 9.368"/>
        <path stroke="#3DB885" stroke-linecap="round" stroke-width="3" d="M87.294 60.114a27.278 27.278 0 0 1 2.04 10.384c0 15.11-12.249 27.358-27.358 27.358S34.62 85.607 34.62 70.498s12.248-27.357 27.357-27.357c6.04 0 11.624 1.957 16.15 5.273"/>
        <path d="M61.976 74.707a5.267 5.267 0 0 1-5.26-5.26 5.267 5.267 0 0 1 5.26-5.262 5.267 5.267 0 0 1 5.261 5.261 5.267 5.267 0 0 1-5.26 5.261"/>
        <path fill="#3DB885" d="M62.663 63.133a7 7 0 1 0 0 14 7 7 0 0 0 0-14"/>
        <path fill="#3DB885" d="M66.7 71.55l-4.724-5.645 59.461-50.122 2.36 2.82 2.364 2.826z"/>
        <g transform="translate(117.743)">
            <mask id="b" fill="#fff">
                <use xlink:href="#a"/>
            </mask>
            <path fill="#3DB885" d="M1.515 9.783l-1.22 8.64 4.418 5.263 8.143.048 11.952-9.181-11.445-2.695L14 .216z" mask="url(#b)"/>
        </g>
    </g>
</svg>
