<svg xmlns="http://www.w3.org/2000/svg" width="12" height="10" viewBox="0 0 12 10">
    <path fill="#FFF" fill-rule="nonzero" d="M12 1.183a4.82 4.82 0 0 1-1.413.398A2.526 2.526 0 0 0 11.669.185c-.477.289-1.004.499-1.565.613A2.426 2.426 0 0 0 8.308 0c-1.36 0-2.462 1.13-2.462 2.525 0 .198.022.39.064.575C3.864 2.995 2.05 1.99.836.462A2.556 2.556 0 0 0 .503 1.73c0 .876.435 1.65 1.095 2.102a2.415 2.415 0 0 1-1.115-.317v.031c0 1.223.849 2.244 1.974 2.477a2.434 2.434 0 0 1-.648.088c-.16 0-.313-.016-.464-.047C1.66 7.07 2.568 7.8 3.645 7.82A4.86 4.86 0 0 1 0 8.864 6.832 6.832 0 0 0 3.773 10c4.529 0 7.004-3.848 7.004-7.185l-.008-.327A4.988 4.988 0 0 0 12 1.183z"/>
</svg>
