<svg xmlns="http://www.w3.org/2000/svg" width="224" height="285" viewBox="0 0 224 285">
    <g fill="#FFF" fill-opacity=".1" fill-rule="nonzero">
        <path d="M97.5 191c6.89 0 12.5-5.155 12.5-11.5S104.391 168 97.5 168c-6.897 0-12.5 5.155-12.5 11.5S90.603 191 97.5 191z"/>
        <path d="M99.5 227c3.593 0 6.5-2.683 6.5-6v-36c0-3.317-2.907-6-6.5-6s-6.5 2.683-6.5 6v36c0 3.317 2.907 6 6.5 6z"/>
        <path d="M6.222 285h211.556c3.44 0 6.222-2.656 6.222-5.938v-166.25c0-3.281-2.783-5.937-6.222-5.937h-168V71.25c0-32.738 27.915-59.375 62.222-59.375s62.222 26.637 62.222 59.375h12.444C186.666 31.96 153.174 0 112 0S37.334 31.96 37.334 71.25v35.625H6.222c-3.44 0-6.222 2.656-6.222 5.938v166.25C0 282.344 2.783 285 6.222 285zm205.333-11.875H12.445V118.75h199.11v154.375z"/>
    </g>
</svg>
