<svg xmlns="http://www.w3.org/2000/svg" width="24" height="33" viewBox="0 0 24 33">
    <g fill="#FFF" fill-opacity=".92" fill-rule="nonzero">
        <path d="M12.002 21.962c-.733 0-1.33-.615-1.33-1.372 0-.758.596-1.373 1.33-1.373.735 0 1.331.615 1.331 1.373 0 .757-.596 1.372-1.33 1.372z"/>
        <path d="M12.002 26.08a.676.676 0 0 1-.665-.686v-4.118c0-.38.297-.686.665-.686.368 0 .666.307.666.686v4.118c0 .38-.298.686-.666.686z"/>
        <path d="M23.316 32.944H.688a.676.676 0 0 1-.665-.687V13.04c0-.38.297-.686.665-.686h17.97V8.236c0-3.784-2.986-6.863-6.656-6.863-1.234 0-2.771 0-4.276 1.61S6.313 5.125 5.9 6.277c-.78 2.174-.564 4.559-.564 6.2H4.004c-.243-2.956-.2-7.161 2.173-9.848C8.55-.057 10.537 0 12.002 0c4.404 0 7.987 3.694 7.987 8.236v4.118h3.327c.368 0 .666.307.666.686v19.217c0 .38-.298.687-.666.687zM1.354 31.57H22.65V13.726H1.354v17.845z"/>
    </g>
</svg>
